<svg xmlns="http://www.w3.org/2000/svg" width="23" height="23" viewBox="0 0 23 23" fill="none">
  <path d="M11.5 0C5.14874 0 0 5.14874 0 11.5C0 17.8513 5.14874 23 11.5 23C17.8513 23 23 17.8513 23 11.5C22.9933 5.15158 17.8485 0.00678643 11.5 0ZM11.5 21.3572C6.05605 21.3572 1.64285 16.944 1.64285 11.5C1.64285 6.05605 6.05605 1.64285 11.5 1.64285C16.944 1.64285 21.3572 6.05605 21.3572 11.5C21.3513 16.9416 16.9416 21.3513 11.5 21.3572Z" fill="#808080"/>
  <path d="M7.39285 11.5C8.30017 11.5 9.0357 10.7645 9.0357 9.85717C9.0357 8.94985 8.30017 8.21432 7.39285 8.21432C6.48553 8.21432 5.75 8.94985 5.75 9.85717C5.75 10.7645 6.48553 11.5 7.39285 11.5Z" fill="#808080"/>
  <path d="M15.6072 11.5C16.5145 11.5 17.25 10.7645 17.25 9.85717C17.25 8.94985 16.5145 8.21432 15.6072 8.21432C14.6998 8.21432 13.9643 8.94985 13.9643 9.85717C13.9643 10.7645 14.6998 11.5 15.6072 11.5Z" fill="#808080"/>
  <path d="M14.6455 14.276C14.3742 13.9124 13.8595 13.8377 13.4959 14.109C13.4802 14.1208 13.4649 14.133 13.4501 14.1459C12.2884 14.9943 10.7115 14.9943 9.5499 14.1459C9.20668 13.8492 8.68792 13.887 8.3913 14.2302C8.09462 14.5734 8.1324 15.0922 8.47562 15.3888C8.49044 15.4017 8.50575 15.4139 8.52149 15.4257C10.2798 16.7696 12.7202 16.7696 14.4785 15.4257C14.8421 15.1543 14.9169 14.6396 14.6455 14.276Z" fill="#808080"/>
</svg>
